# xmcd
#
# Track frame offsets:
#	150
#	8770
#	32080
#	45780
#	62510
#	70045
#	91050
#	106470
#	125400
#	137540
#	152095
#
# Disc length: 2154 seconds
#
# Revision: 1
# Processed by: cddbd v1.5PL3 Copyright (c) Steve Scherf et al.
# Submitted via: EasyCDDAExtractor 6.0.0.1
#
DISCID=7c08680b
DTITLE=Seth Avett - Darling, Killing the Headlamps
DYEAR=2002
DGENRE=Country
TTITLE0=Awaiting the Flood
TTITLE1=Brakelights: part 2 Cheap Rum
TTITLE2=Some Bad Dream
TTITLE3=For All the Times ...
TTITLE4=Captain ...
TTITLE5=The Lights Went Out ...
TTITLE6=The Teal Dream
TTITLE7=Sonata in C Major #1
TTITLE8=Bella Donna
TTITLE9=Getting Us All
TTITLE10=Carolyn Sells
EXTD=
EXTT0=
EXTT1=
EXTT2=
EXTT3=
EXTT4=
EXTT5=
EXTT6=
EXTT7=
EXTT8=
EXTT9=
EXTT10=
PLAYORDER=
